<?xml version="1.0" encoding="UTF-8"?><svg xmlns="http://www.w3.org/2000/svg" xmlns:xlink="http://www.w3.org/1999/xlink" fill-opacity="1" color-rendering="auto" color-interpolation="auto" text-rendering="auto" stroke="black" stroke-linecap="square" width="810" stroke-miterlimit="10" shape-rendering="auto" stroke-opacity="1" fill="black" stroke-dasharray="none" font-weight="normal" stroke-width="1" height="279" font-family="'Dialog'" font-style="normal" stroke-linejoin="miter" font-size="12px" stroke-dashoffset="0" image-rendering="auto">
  <!--Generated by ySVG 2.5-->
  <defs id="genericDefs"/>
  <g>
    <defs id="defs1">
      <clipPath clipPathUnits="userSpaceOnUse" id="clipPath1">
        <path d="M0 0 L810 0 L810 279 L0 279 L0 0 Z"/>
      </clipPath>
      <clipPath clipPathUnits="userSpaceOnUse" id="clipPath2">
        <path d="M720 300 L1530 300 L1530 579 L720 579 L720 300 Z"/>
      </clipPath>
      <clipPath clipPathUnits="userSpaceOnUse" id="clipPath3">
        <path d="M74.0059 -425.9482 L74.0059 384.0518 L-204.9941 384.0518 L-204.9941 -425.9482 L74.0059 -425.9482 Z"/>
      </clipPath>
      <clipPath clipPathUnits="userSpaceOnUse" id="clipPath4">
        <path d="M164.999 -335.9482 L164.999 474.0518 L-114.001 474.0518 L-114.001 -335.9482 L164.999 -335.9482 Z"/>
      </clipPath>
      <clipPath clipPathUnits="userSpaceOnUse" id="clipPath5">
        <path d="M164.999 -425.9482 L164.999 384.0518 L-114.001 384.0518 L-114.001 -425.9482 L164.999 -425.9482 Z"/>
      </clipPath>
      <clipPath clipPathUnits="userSpaceOnUse" id="clipPath6">
        <path d="M74.0059 -335.9482 L74.0059 474.0518 L-204.9941 474.0518 L-204.9941 -335.9482 L74.0059 -335.9482 Z"/>
      </clipPath>
      <clipPath clipPathUnits="userSpaceOnUse" id="clipPath7">
        <path d="M74.0059 -635.9482 L74.0059 174.0518 L-204.9941 174.0518 L-204.9941 -635.9482 L74.0059 -635.9482 Z"/>
      </clipPath>
      <clipPath clipPathUnits="userSpaceOnUse" id="clipPath8">
        <path d="M164.999 -725.9482 L164.999 84.0518 L-114.001 84.0518 L-114.001 -725.9482 L164.999 -725.9482 Z"/>
      </clipPath>
      <clipPath clipPathUnits="userSpaceOnUse" id="clipPath9">
        <path d="M74.999 -725.9482 L74.999 84.0518 L-204.001 84.0518 L-204.001 -725.9482 L74.999 -725.9482 Z"/>
      </clipPath>
      <clipPath clipPathUnits="userSpaceOnUse" id="clipPath10">
        <path d="M164.0059 -635.9482 L164.0059 174.0518 L-114.9941 174.0518 L-114.9941 -635.9482 L164.0059 -635.9482 Z"/>
      </clipPath>
    </defs>
    <g fill="white" text-rendering="geometricPrecision" shape-rendering="geometricPrecision" transform="translate(-720,-300)" stroke="white">
      <rect x="720" width="810" height="279" y="300" clip-path="url(#clipPath2)" stroke="none"/>
    </g>
    <g fill="rgb(255,204,51)" text-rendering="geometricPrecision" shape-rendering="geometricPrecision" transform="matrix(1,0,0,1,-720,-300)" stroke="rgb(255,204,51)">
      <rect x="735" width="90" height="90" y="315" clip-path="url(#clipPath2)" stroke="none"/>
    </g>
    <g text-rendering="geometricPrecision" stroke-miterlimit="1.45" shape-rendering="geometricPrecision" transform="matrix(1,0,0,1,-720,-300)" stroke-linecap="butt">
      <rect fill="none" x="735" width="90" height="90" y="315" clip-path="url(#clipPath2)"/>
      <text x="767.9941" font-size="36px" y="374.1416" clip-path="url(#clipPath2)" font-family="sans-serif" stroke="none" xml:space="preserve">A</text>
    </g>
    <g fill="rgb(0,102,153)" text-rendering="geometricPrecision" shape-rendering="geometricPrecision" transform="matrix(1,0,0,1,-720,-300)" stroke="rgb(0,102,153)">
      <rect x="825" width="90" height="90" y="315" clip-path="url(#clipPath2)" stroke="none"/>
    </g>
    <g text-rendering="geometricPrecision" stroke-miterlimit="1.45" shape-rendering="geometricPrecision" transform="matrix(1,0,0,1,-720,-300)" stroke-linecap="butt">
      <rect fill="none" x="825" width="90" height="90" y="315" clip-path="url(#clipPath2)"/>
    </g>
    <g stroke-linecap="butt" font-size="36px" transform="matrix(1,0,0,1,-720,-300)" fill="white" text-rendering="geometricPrecision" font-family="sans-serif" shape-rendering="geometricPrecision" stroke="white" stroke-miterlimit="1.45">
      <text x="857.9941" xml:space="preserve" y="374.1416" clip-path="url(#clipPath2)" stroke="none">B</text>
    </g>
    <g fill="rgb(204,102,102)" text-rendering="geometricPrecision" shape-rendering="geometricPrecision" transform="matrix(1,0,0,1,-720,-300)" stroke="rgb(204,102,102)">
      <rect x="735" width="90" height="90" y="405" clip-path="url(#clipPath2)" stroke="none"/>
    </g>
    <g text-rendering="geometricPrecision" stroke-miterlimit="1.45" shape-rendering="geometricPrecision" transform="matrix(1,0,0,1,-720,-300)" stroke-linecap="butt">
      <rect fill="none" x="735" width="90" height="90" y="405" clip-path="url(#clipPath2)"/>
      <text x="767.001" font-size="36px" y="464.1416" clip-path="url(#clipPath2)" font-family="sans-serif" stroke="none" xml:space="preserve">C</text>
    </g>
    <g fill="rgb(128,153,102)" text-rendering="geometricPrecision" shape-rendering="geometricPrecision" transform="matrix(1,0,0,1,-720,-300)" stroke="rgb(128,153,102)">
      <rect x="825" width="90" height="90" y="405" clip-path="url(#clipPath2)" stroke="none"/>
    </g>
    <g text-rendering="geometricPrecision" stroke-miterlimit="1.45" shape-rendering="geometricPrecision" transform="matrix(1,0,0,1,-720,-300)" stroke-linecap="butt">
      <rect fill="none" x="825" width="90" height="90" y="405" clip-path="url(#clipPath2)"/>
      <text x="857.001" font-size="36px" y="464.1416" clip-path="url(#clipPath2)" font-family="sans-serif" stroke="none" xml:space="preserve">D</text>
    </g>
    <g fill="rgb(0,102,153)" text-rendering="geometricPrecision" shape-rendering="geometricPrecision" transform="matrix(1,0,0,1,-720,-300)" stroke="rgb(0,102,153)">
      <rect x="1125" width="90" height="90" y="315" clip-path="url(#clipPath2)" stroke="none"/>
    </g>
    <g text-rendering="geometricPrecision" stroke-miterlimit="1.45" shape-rendering="geometricPrecision" transform="matrix(1,0,0,1,-720,-300)" stroke-linecap="butt">
      <rect fill="none" x="1125" width="90" height="90" y="315" clip-path="url(#clipPath2)"/>
    </g>
    <g stroke-linecap="butt" font-size="36px" transform="matrix(-0,-1,1,-0,425.9482,74.0059)" fill="white" text-rendering="geometricPrecision" font-family="sans-serif" shape-rendering="geometricPrecision" stroke="white" stroke-miterlimit="1.45">
      <text x="2" xml:space="preserve" y="38.1934" clip-path="url(#clipPath3)" stroke="none">B</text>
    </g>
    <g fill="rgb(204,102,102)" text-rendering="geometricPrecision" shape-rendering="geometricPrecision" transform="matrix(1,0,0,1,-720,-300)" stroke="rgb(204,102,102)">
      <rect x="1035" width="90" height="90" y="405" clip-path="url(#clipPath2)" stroke="none"/>
    </g>
    <g text-rendering="geometricPrecision" stroke-miterlimit="1.45" shape-rendering="geometricPrecision" transform="matrix(1,0,0,1,-720,-300)" stroke-linecap="butt">
      <rect fill="none" x="1035" width="90" height="90" y="405" clip-path="url(#clipPath2)"/>
    </g>
    <g font-size="36px" stroke-linecap="butt" transform="matrix(-0,-1,1,-0,335.9482,164.999)" text-rendering="geometricPrecision" font-family="sans-serif" shape-rendering="geometricPrecision" stroke-miterlimit="1.45">
      <text x="2" xml:space="preserve" y="38.1934" clip-path="url(#clipPath4)" stroke="none">C</text>
    </g>
    <g fill="rgb(128,153,102)" text-rendering="geometricPrecision" shape-rendering="geometricPrecision" transform="matrix(1,0,0,1,-720,-300)" stroke="rgb(128,153,102)">
      <rect x="1125" width="90" height="90" y="405" clip-path="url(#clipPath2)" stroke="none"/>
    </g>
    <g text-rendering="geometricPrecision" stroke-miterlimit="1.45" shape-rendering="geometricPrecision" transform="matrix(1,0,0,1,-720,-300)" stroke-linecap="butt">
      <rect fill="none" x="1125" width="90" height="90" y="405" clip-path="url(#clipPath2)"/>
    </g>
    <g font-size="36px" stroke-linecap="butt" transform="matrix(-0,-1,1,-0,425.9482,164.999)" text-rendering="geometricPrecision" font-family="sans-serif" shape-rendering="geometricPrecision" stroke-miterlimit="1.45">
      <text x="2" xml:space="preserve" y="38.1934" clip-path="url(#clipPath5)" stroke="none">D</text>
    </g>
    <g fill="rgb(255,204,51)" text-rendering="geometricPrecision" shape-rendering="geometricPrecision" transform="matrix(1,0,0,1,-720,-300)" stroke="rgb(255,204,51)">
      <rect x="1035" width="90" height="90" y="315" clip-path="url(#clipPath2)" stroke="none"/>
    </g>
    <g text-rendering="geometricPrecision" stroke-miterlimit="1.45" shape-rendering="geometricPrecision" transform="matrix(1,0,0,1,-720,-300)" stroke-linecap="butt">
      <rect fill="none" x="1035" width="90" height="90" y="315" clip-path="url(#clipPath2)"/>
    </g>
    <g font-size="36px" stroke-linecap="butt" transform="matrix(-0,-1,1,-0,335.9482,74.0059)" text-rendering="geometricPrecision" font-family="sans-serif" shape-rendering="geometricPrecision" stroke-miterlimit="1.45">
      <text x="2" xml:space="preserve" y="38.1934" clip-path="url(#clipPath6)" stroke="none">A</text>
    </g>
    <g fill="rgb(0,102,153)" text-rendering="geometricPrecision" shape-rendering="geometricPrecision" transform="matrix(1,0,0,1,-720,-300)" stroke="rgb(0,102,153)">
      <rect x="1335" width="90" height="90" y="315" clip-path="url(#clipPath2)" stroke="none"/>
    </g>
    <g text-rendering="geometricPrecision" stroke-miterlimit="1.45" shape-rendering="geometricPrecision" transform="matrix(1,0,0,1,-720,-300)" stroke-linecap="butt">
      <rect fill="none" x="1335" width="90" height="90" y="315" clip-path="url(#clipPath2)"/>
    </g>
    <g stroke-linecap="butt" font-size="36px" transform="matrix(-0,-1,1,-0,635.9482,74.0059)" fill="white" text-rendering="geometricPrecision" font-family="sans-serif" shape-rendering="geometricPrecision" stroke="white" stroke-miterlimit="1.45">
      <text x="2" xml:space="preserve" y="38.1934" clip-path="url(#clipPath7)" stroke="none">B</text>
    </g>
    <g fill="rgb(204,102,102)" text-rendering="geometricPrecision" shape-rendering="geometricPrecision" transform="matrix(1,0,0,1,-720,-300)" stroke="rgb(204,102,102)">
      <rect x="1425" width="90" height="90" y="405" clip-path="url(#clipPath2)" stroke="none"/>
    </g>
    <g text-rendering="geometricPrecision" stroke-miterlimit="1.45" shape-rendering="geometricPrecision" transform="matrix(1,0,0,1,-720,-300)" stroke-linecap="butt">
      <rect fill="none" x="1425" width="90" height="90" y="405" clip-path="url(#clipPath2)"/>
    </g>
    <g font-size="36px" stroke-linecap="butt" transform="matrix(-0,-1,1,-0,725.9482,164.999)" text-rendering="geometricPrecision" font-family="sans-serif" shape-rendering="geometricPrecision" stroke-miterlimit="1.45">
      <text x="2" xml:space="preserve" y="38.1934" clip-path="url(#clipPath8)" stroke="none">C</text>
    </g>
    <g fill="rgb(128,153,102)" text-rendering="geometricPrecision" shape-rendering="geometricPrecision" transform="matrix(1,0,0,1,-720,-300)" stroke="rgb(128,153,102)">
      <rect x="1425" width="90" height="90" y="315" clip-path="url(#clipPath2)" stroke="none"/>
    </g>
    <g text-rendering="geometricPrecision" stroke-miterlimit="1.45" shape-rendering="geometricPrecision" transform="matrix(1,0,0,1,-720,-300)" stroke-linecap="butt">
      <rect fill="none" x="1425" width="90" height="90" y="315" clip-path="url(#clipPath2)"/>
    </g>
    <g font-size="36px" stroke-linecap="butt" transform="matrix(-0,-1,1,-0,725.9482,74.999)" text-rendering="geometricPrecision" font-family="sans-serif" shape-rendering="geometricPrecision" stroke-miterlimit="1.45">
      <text x="2" xml:space="preserve" y="38.1934" clip-path="url(#clipPath9)" stroke="none">D</text>
    </g>
    <g fill="rgb(255,204,51)" text-rendering="geometricPrecision" shape-rendering="geometricPrecision" transform="matrix(1,0,0,1,-720,-300)" stroke="rgb(255,204,51)">
      <rect x="1335" width="90" height="90" y="405" clip-path="url(#clipPath2)" stroke="none"/>
    </g>
    <g text-rendering="geometricPrecision" stroke-miterlimit="1.45" shape-rendering="geometricPrecision" transform="matrix(1,0,0,1,-720,-300)" stroke-linecap="butt">
      <rect fill="none" x="1335" width="90" height="90" y="405" clip-path="url(#clipPath2)"/>
    </g>
    <g font-size="36px" stroke-linecap="butt" transform="matrix(-0,-1,1,-0,635.9482,164.0059)" text-rendering="geometricPrecision" font-family="sans-serif" shape-rendering="geometricPrecision" stroke-miterlimit="1.45">
      <text x="2" xml:space="preserve" y="38.1934" clip-path="url(#clipPath10)" stroke="none">A</text>
    </g>
    <g font-size="24px" stroke-linecap="butt" transform="matrix(1,0,0,1,-720,-300)" text-rendering="geometricPrecision" font-family="sans-serif" shape-rendering="geometricPrecision" stroke-miterlimit="1.45">
      <text x="1384.9629" xml:space="preserve" y="549.4277" clip-path="url(#clipPath2)" stroke="none">étape 3</text>
      <text x="1084.9629" xml:space="preserve" y="549.4277" clip-path="url(#clipPath2)" stroke="none">étape 2</text>
      <text x="784.9629" xml:space="preserve" y="549.4277" clip-path="url(#clipPath2)" stroke="none">étape 1</text>
    </g>
    <g stroke-linecap="butt" transform="matrix(1,0,0,1,-720,-300)" fill="silver" text-rendering="geometricPrecision" shape-rendering="geometricPrecision" stroke="silver" stroke-width="7" stroke-miterlimit="1.45">
      <path fill="none" d="M919.4968 405 L1011.2484 405" clip-path="url(#clipPath2)"/>
      <path d="M1030.4984 405 L1009.4984 394.5 L1009.4984 415.5 Z" clip-path="url(#clipPath2)" stroke="none"/>
      <path fill="none" d="M1220.1432 405 L1311.4852 405" clip-path="url(#clipPath2)"/>
      <path d="M1330.7352 405 L1309.7352 394.5 L1309.7352 415.5 Z" clip-path="url(#clipPath2)" stroke="none"/>
    </g>
  </g>
</svg>
